<svg width="148" height="35" viewBox="0 0 148 35" fill="none" xmlns="http://www.w3.org/2000/svg"><path d="M59.315 20.081h7.37V14H70v15h-3.315v-6.264h-7.37V29H56V14h3.315v6.081zm17.034 2.805c0 2.622.831 3.715 3.632 3.715 2.8 0 3.614-1.093 3.614-3.715V14H87v8.966c0 1.901-.227 3.203-.943 3.987C84.734 28.4 82.802 29 79.998 29c-2.804 0-4.753-.599-6.076-2.047-.744-.801-.922-2.09-.922-3.987V14h3.366l-.017 8.886z" fill="#fff"/><path fill-rule="evenodd" clip-rule="evenodd" d="M104 29l-6.757-15-3.534.007L87 29h3.533l1.427-3.569h6.874L100.291 29H104zm-6.245-6.247h-4.73l2.324-5.762 2.406 5.762z" fill="#fff"/><path d="M105.63 14l3.714 11.535L112.476 14h3.985l3.603 11.535L123.53 14H127l-4.968 15h-4.142l-3.425-11.194L111.473 29h-4.122L102 14h3.63zm26.14 6.095H141v2.61h-9.251c.02 2.696 1.146 3.679 3.776 3.679H141V29h-5.637c-1.919 0-3.395-.144-4.94-1.313-1.63-1.233-2.423-3.198-2.423-5.916 0-5.3 2.362-7.771 7.453-7.771H141v2.616h-5.492c-2.403 0-3.615 1.123-3.75 3.486M144 14h4v15h-4V14zM20.945 26.953a.144.144 0 0 0 .043-.17A104.767 104.767 0 0 0 7.848 6S3.72 9.827 4.015 13.654a6.718 6.718 0 0 0 2.39 4.612c3.6 3.424 12.315 7.741 14.34 8.726.025.003.132.03.2-.039zm-1.951 3.177a.188.188 0 0 0-.177-.13L5 30.505c1.498 2.84 4.025 5.053 6.654 4.37 1.81-.49 5.913-3.529 7.272-4.557.105-.101.068-.188.068-.188zm-.014-1.25c.067-.111-.053-.21-.053-.21C12.626 24.459.412 18 .412 18c-1.37 4.203.777 8.74 4.915 10.388a8.89 8.89 0 0 0 2.744.593c.215.042 8.532 0 10.76 0a.19.19 0 0 0 .149-.1zM20.279 0c-.621.052-2.285.432-2.285.432a6.602 6.602 0 0 0-4.686 4.383c-.703 2.144.017 4.497.017 4.497 1.26 5.579 7.473 14.703 8.807 16.62.095.094.172.063.172.063a.174.174 0 0 0 .13-.181C24.491 5.407 20.28 0 20.28 0zm4.399 25.989c.08.03.17-.004.207-.08 1.373-1.97 7.545-11.06 8.806-16.6 0 0 .681-2.684.021-4.498A6.614 6.614 0 0 0 28.986.436S27.894.164 26.74 0c0 0-4.234 5.411-2.173 25.832.003.07.047.131.112.157zm3.483 4.015a.208.208 0 0 0-.156.115.214.214 0 0 0 .054.195c1.322 1.009 5.333 3.983 7.266 4.56 0 0 3.574 1.29 6.675-4.366L28.161 30v.004zM46.593 18s-12.2 6.477-18.51 10.686a.18.18 0 0 0-.075.206s.06.108.149.108c2.257 0 10.805 0 11.024-.028a8.663 8.663 0 0 0 2.47-.558 8.392 8.392 0 0 0 4.62-4.377A8.486 8.486 0 0 0 46.594 18zm-19.528 8.972a.182.182 0 0 0 .193 0c2.083-1.006 10.746-5.301 14.337-8.702 0 0 2.272-1.779 2.393-4.636C44.248 9.669 40.155 6 40.155 6a104.85 104.85 0 0 0-13.136 20.746.191.191 0 0 0 .046.226z" fill="#fff"/></svg>