<svg width="153" height="28" viewBox="0 0 153 28" fill="none" xmlns="http://www.w3.org/2000/svg"><path fill-rule="evenodd" clip-rule="evenodd" d="M45.503 0L40.09 3.151v1.72h7.032V0h-1.619zm99.293 6.55c-1.616 0-3.56.167-4.674.262l-.025.002h-.01c-.428.038-.727.063-.829.063v20.385h4.487v-6.958c.654.11 1.317.164 1.98.164 4.122 0 7.275-2.742 7.275-6.918 0-4.747-3.475-7-8.204-7zm.404 10.111a4.108 4.108 0 0 1-.705-.046 3.924 3.924 0 0 1-.583-.134l-.066-.021a3.235 3.235 0 0 1-.101-.035v-5.78c.126-.021.413-.031.72-.036.258-.004.532-.004.735-.004 1.98 0 3.313.982 3.313 3.028 0 1.966-1.373 3.028-3.313 3.028zm-10.949 3.447h-4.325v3.061h5.575v4.093h-9.982V6.794h9.662v4.088h-5.255v5.287h4.325v3.94zm-20.652-3.283V6.795h-4.404v20.467h4.404v-6.624h.808l5.173 6.624h1.868v-4.748c-.357-.493-.76-1.039-1.166-1.59l-.514-.697c-.43-.584-.843-1.151-1.19-1.642l.133-.394.134-.4c.484-1.463 1.05-3.262 1.429-4.57l1.898-6.427h-4.614l-2.99 10.028-.969.003zm-56.655.203c0 3.276 2.628 4.79 4.244 4.79V12.24c-1.621 0-4.244 1.512-4.244 4.788zM44.978 27.264v-5.772l-.717-.002-4.77 5.772h-2.384V6.794h4.438v3.113c0 2.115-.12 5.696-.205 8.188l-.029.859h.727l2.94-3.88v-8.28h4.437v20.47h-4.437zM2.87 14.615c0 4.093-.535 8.145-2.87 9.004V28c5.456-.573 7.153-5.403 7.153-12.609V10.41h2.91v16.865h4.438V6.794H2.87v7.821zm66.882 2.425c0-3.277-2.627-4.79-4.244-4.79v9.569c1.617 0 4.244-1.503 4.244-4.779zm-4.244 8.35c4.849 0 8.73-3.44 8.73-8.35 0-4.911-3.88-8.35-8.73-8.35V5.894h-4.32v2.782c-4.849 0-8.73 3.44-8.73 8.351 0 4.911 3.88 8.35 8.73 8.35v2.456h4.32V25.39zm14.797-15.2c.393.741.767 1.464 1.084 2.102l.85-.012c.38-.771.851-1.67 1.335-2.575.448-.84.909-1.686 1.32-2.443l.004-.005.251-.463h1.939v5.61l-2.546 4.257 2.903 4.954v5.65h-1.94l-3.27-6.223h-.848l-3.27 6.222h-1.94v-5.649l2.898-4.954-2.546-4.258V6.794h1.941c.55 1.004 1.215 2.223 1.835 3.396zm21.052-3.396h-6.913l-5.416 20.468h4.526l.89-3.605h6.913l.89 3.602h4.526l-5.416-20.465zm-5.944 13.101h4.97l-2.1-8.637h-.807l-2.063 8.637zm-66.155-13.1h-6.91l-5.416 20.467h4.526l.89-3.605h6.91l.89 3.602h4.526L29.258 6.794zm-5.941 13.1h4.972l-2.102-8.637h-.808l-2.062 8.637z" fill="#fff"/></svg>